Coordinates
version=1
nRows=35
nColumns=18
inDegrees=yes

Units are S.I. units (second, meters, Newtons, ...)
If the header above contains a line with 'inDegrees', this indicates whether rotational values are in degrees (yes) or radians (no).

endheader
time	ground_thorax_rot_x	ground_thorax_rot_y	ground_thorax_rot_z	ground_thorax_tx	ground_thorax_ty	ground_thorax_tz	clav_prot	clav_elev	scapula_abduction	scapula_elevation	scapula_upward_rot	scapula_winging	plane_elv	shoulder_elv	axial_rot	elbow_flexion	pro_sup
      0.00000000	      3.52855889	     -1.42784156	     -8.23648410	     -0.00496454	      0.00439958	      0.00084636	    -25.76196619	     -5.79462203	    -18.58799040	     -4.91917384	     11.25759344	      6.32215800	    -25.94026701	     14.64456427	     48.80965953	      0.00000000	     34.32000000
      0.01000000	      3.53543398	     -1.45738451	     -8.26088391	     -0.00495166	      0.00440503	      0.00092881	    -25.75881297	     -5.77790073	    -18.59467512	     -4.90220967	     11.24324353	      6.31957126	    -25.95274134	     14.65029536	     48.81081374	      0.00000000	     34.32000000
      0.02000000	      3.53486196	     -1.45822009	     -8.26185953	     -0.00503130	      0.00447073	      0.00094659	    -25.75882364	     -5.77720740	    -18.59488495	     -4.90166286	     11.24320241	      6.31933340	    -25.95300811	     14.65067139	     48.81084434	      0.00000000	     34.32000000
      0.03000000	      3.53480231	     -1.45879331	     -8.26225285	     -0.00503085	      0.00447105	      0.00093698	    -25.75877944	     -5.77681766	    -18.59499284	     -4.90131613	     11.24304279	      6.31922975	    -25.95324888	     14.65077879	     48.81086354	      0.00000000	     34.32000000
      0.04000000	      3.53530302	     -1.45908027	     -8.26209137	     -0.00498862	      0.00442007	      0.00091291	    -25.75868055	     -5.77680895	    -18.59496965	     -4.90123460	     11.24278742	      6.31929326	    -25.95344017	     14.65061536	     48.81087448	      0.00000000	     34.32000000
      0.05000000	      3.53577825	     -1.45925402	     -8.26188241	     -0.00496517	      0.00437082	      0.00091600	    -25.75859029	     -5.77687642	    -18.59488520	     -4.90124004	     11.24263499	      6.31935973	    -25.95361068	     14.65053096	     48.81088888	      0.00000000	     34.32000000
      0.06000000	      3.53599241	     -1.45932745	     -8.26171295	     -0.00496582	      0.00434396	      0.00094879	    -25.75851286	     -5.77691346	    -18.59472043	     -4.90127517	     11.24267826	      6.31936704	    -25.95375233	     14.65057576	     48.81090636	      0.00000000	     34.32000000
      0.07000000	      3.53635541	     -1.45927092	     -8.26136596	     -0.00496847	      0.00431929	      0.00097910	    -25.75838566	     -5.77707872	    -18.59444089	     -4.90140577	     11.24272024	      6.31942478	    -25.95387025	     14.65047039	     48.81091208	      0.00000000	     34.32000000
      0.08000000	      3.55927929	     -1.46008892	     -8.24866166	     -0.00500475	      0.00434024	      0.00103228	    -25.75059451	     -5.78444020	    -18.58082312	     -4.90591141	     11.24021140	      6.32316488	    -25.96096114	     14.64104227	     48.81106419	      0.00000000	     34.32000000
      0.09000000	      3.55975970	     -1.46018875	     -8.24845772	     -0.00499441	      0.00431438	      0.00101484	    -25.75046892	     -5.78457678	    -18.58061590	     -4.90599248	     11.24014580	      6.32323568	    -25.96111485	     14.64097094	     48.81108183	      0.00000000	     34.32000000
      0.10000000	      3.55998807	     -1.46025348	     -8.24841205	     -0.00498576	      0.00432451	      0.00100499	    -25.75033861	     -5.78458914	    -18.58040398	     -4.90598747	     11.24012322	      6.32325244	    -25.96124426	     14.64094328	     48.81110495	      0.00000000	     34.32000000
      0.11000000	      3.55984379	     -1.46025371	     -8.24845641	     -0.00498421	      0.00435416	      0.00101021	    -25.75022342	     -5.78448147	    -18.58015646	     -4.90593382	     11.24026182	      6.32318503	    -25.96132751	     14.64103531	     48.81113971	      0.00000000	     34.32000000
      0.12000000	      3.55984379	     -1.46025371	     -8.24845641	     -0.00498421	      0.00435416	      0.00101021	    -25.75022342	     -5.78448147	    -18.58015646	     -4.90593382	     11.24026182	      6.32318503	    -25.96132751	     14.64103531	     48.81113971	      0.00000000	     34.32000000
      0.13000000	      3.55985003	     -1.46017410	     -8.24817281	     -0.00498629	      0.00433650	      0.00101672	    -25.75012662	     -5.78458717	    -18.57982546	     -4.90607658	     11.24051383	      6.32316845	    -25.96137579	     14.64112373	     48.81118124	      0.00000000	     34.32000000
      0.14000000	      3.56025932	     -1.45995875	     -8.24753202	     -0.00496551	      0.00429341	      0.00100309	    -25.74999470	     -5.78495467	    -18.57941499	     -4.90639868	     11.24068867	      6.32326938	    -25.96140002	     14.64099374	     48.81121614	      0.00000000	     34.32000000
      0.15000000	      3.56080714	     -1.45959308	     -8.24670882	     -0.00492924	      0.00425607	      0.00098148	    -25.74984123	     -5.78545479	    -18.57894140	     -4.90681926	     11.24085383	      6.32342294	    -25.96138909	     14.64073029	     48.81124932	      0.00000000	     34.32000000
      0.16000000	      3.56121414	     -1.45916847	     -8.24595286	     -0.00489022	      0.00424343	      0.00096078	    -25.74970309	     -5.78590666	    -18.57847713	     -4.90721711	     11.24106966	      6.32354561	    -25.96135886	     14.64049404	     48.81128748	      0.00000000	     34.32000000
      0.17000000	      3.56132488	     -1.45884562	     -8.24550848	     -0.00486582	      0.00426520	      0.00094382	    -25.74960105	     -5.78615107	    -18.57810903	     -4.90746426	     11.24131249	      6.32358296	    -25.96134623	     14.64037666	     48.81133080	      0.00000000	     34.32000000
      0.18000000	      3.56103803	     -1.45874423	     -8.24550805	     -0.00487311	      0.00432462	      0.00093433	    -25.74953143	     -5.78609437	    -18.57786824	     -4.90748094	     11.24155565	      6.32350689	    -25.96137161	     14.64038813	     48.81137600	      0.00000000	     34.32000000
      0.19000000	      3.56021560	     -1.45859959	     -8.24573752	     -0.00489443	      0.00440275	      0.00095479	    -25.74946268	     -5.78579401	    -18.57759863	     -4.90735193	     11.24195770	      6.32330208	    -25.96137703	     14.64055830	     48.81142898	      0.00000000	     34.32000000
      0.20000000	      3.55824613	     -1.45759930	     -8.24556592	     -0.00489079	      0.00446331	      0.00101692	    -25.74925314	     -5.78532792	    -18.57664672	     -4.90731651	     11.24322268	      6.32283498	    -25.96121749	     14.64100347	     48.81155485	      0.00000000	     34.32000000
      0.21000000	      3.53079196	     -1.43603338	     -8.23752884	     -0.00493482	      0.00443776	      0.00096826	    -25.74195304	     -5.77843985	    -18.55291994	     -4.90774763	     11.26647435	      6.31506058	    -25.95964517	     14.64489770	     48.81380354	      0.00000000	     34.32000000
      0.22000000	      3.53109992	     -1.43585933	     -8.23738396	     -0.00492143	      0.00441719	      0.00096700	    -25.74178150	     -5.77847782	    -18.55262121	     -4.90773399	     11.26639693	      6.31509044	    -25.95975251	     14.64467730	     48.81380376	      0.00000000	     34.32000000
      0.23000000	      3.53169149	     -1.43590157	     -8.23732698	     -0.00492250	      0.00440112	      0.00094163	    -25.74158684	     -5.77854136	    -18.55243253	     -4.90769502	     11.26611529	      6.31519195	    -25.95991283	     14.64431597	     48.81379383	      0.00000000	     34.32000000
      0.24000000	      3.53198989	     -1.43580511	     -8.23743000	     -0.00492322	      0.00441767	      0.00094310	    -25.74135474	     -5.77847269	    -18.55218308	     -4.90756526	     11.26588524	      6.31523391	    -25.96006584	     14.64398875	     48.81378913	      0.00000000	     34.32000000
      0.25000000	      3.53185449	     -1.43566973	     -8.23775935	     -0.00494406	      0.00445623	      0.00097314	    -25.74112176	     -5.77821274	    -18.55189335	     -4.90732818	     11.26580670	      6.31516845	    -25.96021669	     14.64382902	     48.81379399	      0.00000000	     34.32000000
      0.26000000	      3.53140543	     -1.43555045	     -8.23813864	     -0.00498223	      0.00448775	      0.00101935	    -25.74092127	     -5.77786163	    -18.55156596	     -4.90707766	     11.26593333	      6.31501803	    -25.96034501	     14.64387490	     48.81381003	      0.00000000	     34.32000000
      0.27000000	      3.53090943	     -1.43526862	     -8.23820428	     -0.00499700	      0.00449964	      0.00105407	    -25.74072084	     -5.77761795	    -18.55111794	     -4.90695550	     11.26622954	      6.31486654	    -25.96039404	     14.64391081	     48.81383169	      0.00000000	     34.32000000
      0.28000000	      3.53065844	     -1.43484793	     -8.23780130	     -0.00497067	      0.00450154	      0.00103511	    -25.74049723	     -5.77760418	    -18.55057846	     -4.90700790	     11.26651994	      6.31480288	    -25.96036172	     14.64361305	     48.81384514	      0.00000000	     34.32000000
      0.29000000	      3.53042918	     -1.43418257	     -8.23702461	     -0.00491419	      0.00450566	      0.00099278	    -25.74025489	     -5.77775849	    -18.54992579	     -4.90720850	     11.26688346	      6.31478485	    -25.96024110	     14.64305102	     48.81385541	      0.00000000	     34.32000000
      0.30000000	      3.50251419	     -1.39972270	     -8.21922270	     -0.00498316	      0.00449288	      0.00089076	    -25.71945897	     -5.76900326	    -18.50375657	     -4.90525035	     11.28994096	      6.30703933	    -25.96410216	     14.61141474	     48.81438638	      0.00000000	     34.32000000
      0.31000000	      3.50196997	     -1.39901785	     -8.21920252	     -0.00491812	      0.00452789	      0.00093617	    -25.71921187	     -5.76873918	    -18.50325045	     -4.90510152	     11.29020779	      6.30688968	    -25.96411769	     14.61130167	     48.81440019	      0.00000000	     34.32000000
      0.32000000	      3.50167561	     -1.39860360	     -8.21954684	     -0.00488962	      0.00455973	      0.00094913	    -25.71894981	     -5.76835253	    -18.50290631	     -4.90478159	     11.29019253	      6.30676340	    -25.96422497	     14.61114501	     48.81440084	      0.00000000	     34.32000000
      0.33000000	      3.50173808	     -1.39847691	     -8.22007389	     -0.00487747	      0.00457540	      0.00093304	    -25.71868809	     -5.76793956	    -18.50273239	     -4.90436338	     11.28988560	      6.30669775	    -25.96442043	     14.61088641	     48.81438492	      0.00000000	     34.32000000
      0.34000000	      3.50185948	     -1.39826475	     -8.22050759	     -0.00485161	      0.00457872	      0.00091947	    -25.71842377	     -5.76756858	    -18.50255148	     -4.90397383	     11.28956519	      6.30665103	    -25.96460634	     14.61059161	     48.81436528	      0.00000000	     34.32000000
